# xmcd
# 
# Track frame offsets:
#     150
#     11527
#     22785
#     34972
#     46185
#     56032
#     66705
#     78782
#     90867
#     103422
#     115647
#     124942
#     137695
#     150692
#     163400
#     176965
#     189152
#     200590
#     213065
#     224972
#     235185
#     246985
#     255700
#     267585
# 
# Disc length: 3722
# 
# Revision: 4
# Processed by: cddbd v1.5.2PL0 Copyright (c) Steve Scherf et al.
# Submitted via: fre:ac v1.0.31
# 
DISCID=600e8818
DTITLE=Stonewall Jackson - The Best Of Stonewall Jackson
DYEAR=2002
DGENRE=Country
TTITLE0=Life To Go
TTITLE1=Waterloo
TTITLE2=Smoke Along The Tracks
TTITLE3=Mary Don't You Weep
TTITLE4=Why I'm Walkin'
TTITLE5=Life Of A Poor Boy
TTITLE6=A Little Guy Called Joe
TTITLE7=A Wound Time Can't Erase
TTITLE8=Leona
TTITLE9=One Look At Heaven
TTITLE10=I Can't Hang Up The Phone
TTITLE11=Old Showboat
TTITLE12=Wild, Wild Wind
TTITLE13=B.J. The D.J.
TTITLE14=Don't Be Angry
TTITLE15=I washed My Hands In Muddy Water
TTITLE16=The Minute Men Are Turning In Their Graves
TTITLE17=Blues Plus Booze Means I Lose
TTITLE18=Help Stamp Out Loneliness
TTITLE19=Promises and Hearts Were Made To Break
TTITLE20=Angry Words
TTITLE21=Never More TheRaven
TTITLE22=Me and You and A Dog Named Boo
TTITLE23=Torn From The Pages Of Life
EXTD=Collectors Choice Music
EXTT0=
EXTT1=
EXTT2=
EXTT3=
EXTT4=
EXTT5=
EXTT6=
EXTT7=
EXTT8=
EXTT9=
EXTT10=
EXTT11=
EXTT12=
EXTT13=
EXTT14=
EXTT15=
EXTT16=
EXTT17=
EXTT18=
EXTT19=
EXTT20=
EXTT21=
EXTT22=
EXTT23=
PLAYORDER=
